<svg preserveAspectRatio="none" width="100%" height="100%" overflow="visible" style="display: block;" viewBox="0 0 301.235 57.6748" fill="none" xmlns="http://www.w3.org/2000/svg">
<g id="Frame 194">
<g id="logos:mastercard" clip-path="url(#clip0_0_289)">
<path id="Vector" d="M10.4317 50.9174V47.9653C10.4317 46.8334 9.74266 46.0956 8.56168 46.0956C7.9713 46.0956 7.33161 46.2923 6.88872 46.932C6.54444 46.3907 6.05246 46.0956 5.31437 46.0956C4.82216 46.0956 4.33041 46.243 3.9366 46.7843V46.1939H2.90332V50.9174H3.9366V48.3096C3.9366 47.4733 4.37949 47.0795 5.06849 47.0795C5.75704 47.0795 6.10177 47.5224 6.10177 48.3096V50.9174H7.13504V48.3096C7.13504 47.4733 7.6268 47.0795 8.26649 47.0795C8.95549 47.0795 9.29977 47.5224 9.29977 48.3096V50.9174H10.4317V50.9174ZM25.7338 46.1939H24.061V44.7671H23.0278V46.1939H22.0929V47.1286H23.0275V49.2938C23.0275 50.3764 23.4704 51.0158 24.6514 51.0158C25.0943 51.0158 25.5861 50.8683 25.9308 50.6716L25.6354 49.7858C25.3402 49.9826 24.9959 50.0319 24.7498 50.0319C24.2578 50.0319 24.061 49.7367 24.061 49.2445V47.1286H25.7338V46.1939V46.1939ZM34.4922 46.0953C33.9018 46.0953 33.5082 46.3907 33.2621 46.7843V46.1939H32.2289V50.9174H33.2621V48.2605C33.2621 47.4733 33.6064 47.0304 34.2461 47.0304C34.4429 47.0304 34.689 47.0797 34.8858 47.1288L35.181 46.1449C34.9842 46.0956 34.689 46.0956 34.4922 46.0956V46.0953ZM21.2564 46.5875C20.7642 46.243 20.0754 46.0956 19.3373 46.0956C18.1566 46.0956 17.3694 46.6859 17.3694 47.6208C17.3694 48.4082 17.9598 48.8509 18.9931 48.9986L19.485 49.0479C20.0263 49.1461 20.3215 49.2938 20.3215 49.5399C20.3215 49.8842 19.9279 50.1303 19.2389 50.1303C18.5502 50.1303 18.0089 49.8842 17.6644 49.6383L17.1724 50.4254C17.7137 50.819 18.4518 51.0158 19.1896 51.0158C20.5674 51.0158 21.3548 50.3764 21.3548 49.4906C21.3548 48.6541 20.7151 48.2112 19.7309 48.0637L19.2389 48.0144C18.796 47.9651 18.4518 47.8669 18.4518 47.5717C18.4518 47.2272 18.796 47.0304 19.3373 47.0304C19.9279 47.0304 20.5183 47.2763 20.8135 47.424L21.2564 46.5875V46.5875ZM48.7122 46.0956C48.1216 46.0956 47.728 46.3907 47.4819 46.7843V46.1939H46.4486V50.9174H47.4819V48.2605C47.4819 47.4733 47.8264 47.0304 48.4659 47.0304C48.6629 47.0304 48.909 47.0797 49.1058 47.1288L49.401 46.1449C49.2042 46.0956 48.909 46.0956 48.7122 46.0956V46.0956ZM35.5255 48.5557C35.5255 49.9826 36.5094 51.0158 38.0349 51.0158C38.7237 51.0158 39.2157 50.8683 39.7077 50.4748L39.2157 49.6383C38.8221 49.9335 38.4285 50.081 37.9856 50.081C37.1491 50.081 36.5587 49.4906 36.5587 48.5557C36.5587 47.6701 37.1491 47.0795 37.9856 47.0304C38.4285 47.0304 38.8221 47.1779 39.2157 47.4733L39.7077 46.6368C39.2157 46.243 38.7237 46.0956 38.0349 46.0956C36.5094 46.0956 35.5255 47.1288 35.5255 48.5557ZM45.0711 48.5557V46.1939H44.0378V46.7843C43.6933 46.3417 43.2013 46.0956 42.5616 46.0956C41.2331 46.0956 40.1999 47.1288 40.1999 48.5557C40.1999 49.9826 41.2331 51.0158 42.5616 51.0158C43.2504 51.0158 43.7426 50.77 44.0378 50.3271V50.9174H45.0711V48.5557V48.5557ZM41.2822 48.5557C41.2822 47.7192 41.8235 47.0304 42.7091 47.0304C43.5456 47.0304 44.1362 47.6701 44.1362 48.5557C44.1362 49.3922 43.5456 50.081 42.7091 50.081C41.8235 50.0316 41.2822 49.3922 41.2822 48.5557V48.5557ZM28.9322 46.0956C27.5545 46.0956 26.5703 47.0795 26.5703 48.5557C26.5703 50.0319 27.5542 51.0158 28.9813 51.0158C29.6701 51.0158 30.3591 50.819 30.9004 50.3764L30.4082 49.6383C30.0146 49.9335 29.5226 50.1303 29.0306 50.1303C28.3909 50.1303 27.7513 49.8351 27.6035 48.9984H31.0972V48.605C31.1465 47.0795 30.2607 46.0956 28.932 46.0956H28.9322ZM28.9322 46.9811C29.5717 46.9811 30.0148 47.3749 30.113 48.113H27.6529C27.7513 47.4733 28.1941 46.9811 28.9322 46.9811ZM54.5673 48.5557V44.3242H53.5341V46.7843C53.1896 46.3417 52.6976 46.0956 52.0579 46.0956C50.7294 46.0956 49.6961 47.1288 49.6961 48.5557C49.6961 49.9826 50.7294 51.0158 52.0579 51.0158C52.7469 51.0158 53.2389 50.77 53.5341 50.3271V50.9174H54.5673V48.5557V48.5557ZM50.7787 48.5557C50.7787 47.7192 51.3198 47.0304 52.2056 47.0304C53.0421 47.0304 53.6325 47.6701 53.6325 48.5557C53.6325 49.3922 53.0421 50.081 52.2056 50.081C51.3198 50.0316 50.7787 49.3922 50.7787 48.5557V48.5557ZM16.2375 48.5557V46.1939H15.2042V46.7843C14.8597 46.3417 14.3678 46.0956 13.7281 46.0956C12.3996 46.0956 11.3663 47.1288 11.3663 48.5557C11.3663 49.9826 12.3996 51.0158 13.7281 51.0158C14.4171 51.0158 14.909 50.77 15.2042 50.3271V50.9174H16.2375V48.5557V48.5557ZM12.3996 48.5557C12.3996 47.7192 12.9409 47.0304 13.8265 47.0304C14.6629 47.0304 15.2535 47.6701 15.2535 48.5557C15.2535 49.3922 14.6629 50.081 13.8265 50.081C12.9409 50.0316 12.3996 49.3922 12.3996 48.5557V48.5557Z" fill="var(--fill-0, black)"/>
<path id="Vector_2" d="M20.9121 10.3243H36.4112V38.1736H20.9121V10.3243Z" fill="var(--fill-0, #FF5F00)"/>
<path id="Vector_3" d="M21.8958 24.2491C21.8958 18.5907 24.5527 13.5718 28.6365 10.3243C25.6353 7.96254 21.8467 6.53568 17.7136 6.53568C7.92171 6.53568 0 14.4574 0 24.2491C0 34.0405 7.92171 41.9625 17.7134 41.9625C21.8465 41.9625 25.6351 40.5356 28.6365 38.1736C24.5527 34.9754 21.8958 29.9074 21.8958 24.2491V24.2491Z" fill="var(--fill-0, #EB001B)"/>
<path id="Vector_4" d="M57.3221 24.2491C57.3221 34.0405 49.4004 41.9625 39.6087 41.9625C35.4756 41.9625 31.687 40.5356 28.6855 38.1736C32.8187 34.9263 35.4265 29.9074 35.4265 24.2491C35.4265 18.5907 32.7693 13.5718 28.6855 10.3243C31.6868 7.96253 35.4756 6.53566 39.6087 6.53566C49.4004 6.53566 57.3223 14.5067 57.3223 24.2491H57.3221Z" fill="var(--fill-0, #F79E1B)"/>
</g>
<g id="cib:google-pay" clip-path="url(#clip1_0_289)">
<path id="Vector_5" d="M142 24.0306L134.472 40.8518H132.143L134.94 34.9653L129.984 24.0288H132.433L136.02 32.4114H136.067L139.54 24.0288L142 24.0306ZM110.722 29.2321V36.0467H108.356V19.2255H114.617C116.103 19.1848 117.551 19.7039 118.672 20.68C119.781 21.5902 120.39 22.8771 120.372 24.2378C120.379 24.9226 120.23 25.6001 119.936 26.2183C119.641 26.8366 119.209 27.3792 118.672 27.8047C117.584 28.7617 116.232 29.2321 114.617 29.2321H110.722ZM110.713 21.3V27.1666H114.675C115.537 27.1976 116.377 26.8874 117.012 26.3033C117.623 25.759 117.96 25.0164 117.96 24.2468C117.96 23.4682 117.621 22.7257 117.012 22.1904C116.701 21.8942 116.334 21.6629 115.933 21.5097C115.532 21.3566 115.104 21.2847 114.675 21.2982L110.713 21.3ZM125.112 24.0306C126.613 24.0306 127.806 24.4523 128.679 25.2886C129.551 26.1249 129.984 27.2694 129.984 28.7238V35.6791H128.032V34.111H127.947C127.102 35.3979 125.984 36.0449 124.586 36.0449C123.384 36.0449 122.389 35.6791 121.581 34.9365C121.192 34.5916 120.882 34.1663 120.672 33.6899C120.463 33.2135 120.36 32.6973 120.37 32.1771C120.37 31.0128 120.792 30.0846 121.646 29.3889C122.491 28.704 123.627 28.3562 125.043 28.3562C126.255 28.3562 127.25 28.5905 128.028 29.0501V28.5616C128.031 28.2071 127.957 27.8561 127.813 27.5322C127.669 27.2083 127.457 26.9189 127.192 26.6836C126.658 26.1836 125.952 25.908 125.22 25.914C124.085 25.914 123.183 26.4114 122.517 27.4063L120.723 26.242C121.709 24.7677 123.173 24.027 125.107 24.027L125.112 24.0306ZM122.475 32.2258C122.471 32.4929 122.53 32.7571 122.648 32.9971C122.765 33.237 122.938 33.4457 123.151 33.6064C123.602 33.9723 124.166 34.1705 124.737 34.1597C125.591 34.1597 126.417 33.8028 127.028 33.1738C127.675 32.5736 128.043 31.7283 128.043 30.8452C127.405 30.3189 126.521 30.0558 125.386 30.0558C124.55 30.0558 123.865 30.263 123.311 30.6758C122.758 31.0975 122.475 31.6058 122.475 32.224V32.2258ZM94.1352 19.2255C96.5619 19.1963 98.9085 20.0928 100.698 21.7326L97.9003 24.4739C96.8785 23.5259 95.5288 23.011 94.1352 23.0375C92.919 23.0434 91.7349 23.4281 90.7475 24.1381C89.7601 24.8481 89.0184 25.848 88.6255 26.999C88.2126 28.1911 88.2126 29.4873 88.6255 30.6794C89.0184 31.8303 89.7601 32.8303 90.7475 33.5403C91.7349 34.2503 92.919 34.635 94.1352 34.6409C95.4581 34.6409 96.5954 34.3129 97.4767 33.7307C97.9838 33.4005 98.4183 32.9706 98.7539 32.4671C99.0895 31.9636 99.3191 31.397 99.4287 30.8019H94.1334V27.1035H103.379C103.493 27.7506 103.549 28.3994 103.549 29.0555C103.549 31.9843 102.478 34.4625 100.629 36.1333C99.0051 37.5986 96.781 38.4511 94.1334 38.4511C92.3262 38.4603 90.5515 37.9708 89.0045 37.0366C87.4575 36.1024 86.1982 34.7595 85.365 33.1558C84.6801 31.8194 84.3228 30.3391 84.3228 28.8374C84.3228 27.3356 84.6801 25.8554 85.365 24.519C86.1972 22.9168 87.4548 21.5749 88.9997 20.6407C90.5447 19.7066 92.3172 19.2163 94.1226 19.2237L94.1352 19.2255Z" fill="var(--fill-0, black)"/>
</g>
<g id="cib:cc-paypal" clip-path="url(#clip2_0_289)">
<path id="Vector_6" d="M184.458 29.0203C184.458 30.0365 183.65 30.81 182.627 30.81C181.861 30.81 181.294 30.3768 181.294 29.5614C181.294 28.5451 182.086 27.7297 183.102 27.7297C183.877 27.7297 184.46 28.2049 184.46 29.0203H184.458ZM175.648 24.9822H175.257C175.132 24.9822 175.006 25.0661 174.99 25.207L174.631 27.4314L175.315 27.4059C176.231 27.4059 176.938 27.2815 177.105 26.2233C177.297 25.1066 176.589 24.9822 175.648 24.9822ZM199.298 24.9822H198.923C198.773 24.9822 198.673 25.0661 198.656 25.207L198.307 27.4314L198.972 27.4059C200.055 27.4059 200.804 27.1556 200.804 25.907C200.795 25.0242 200.005 24.9822 199.296 24.9822H199.298ZM216.91 14.1809V43.4939C216.91 44.554 216.488 45.5706 215.739 46.3202C214.989 47.0698 213.973 47.4911 212.912 47.4915H172.941C171.881 47.4911 170.864 47.0698 170.114 46.3202C169.365 45.5706 168.943 44.554 168.943 43.4939V14.1809C168.943 13.1208 169.365 12.1043 170.114 11.3546C170.864 10.605 171.881 10.1837 172.941 10.1833H212.912C213.973 10.1837 214.989 10.605 215.739 11.3546C216.488 12.1043 216.91 13.1208 216.91 14.1809ZM179.629 25.4558C179.629 23.7066 178.28 23.1235 176.739 23.1235H173.408C173.301 23.1243 173.197 23.1646 173.117 23.2368C173.038 23.3089 172.987 23.4078 172.975 23.5147L171.61 32.0166C171.584 32.183 171.71 32.3494 171.876 32.3494H173.459C173.684 32.3494 173.893 32.1081 173.918 31.8742L174.293 29.6588C174.377 29.0593 175.391 29.2676 175.792 29.2676C178.173 29.2676 179.63 27.8526 179.63 25.4543L179.629 25.4558ZM186.641 26.1888H185.058C184.742 26.1888 184.725 26.6475 184.709 26.8723C184.226 26.1648 183.526 26.0389 182.735 26.0389C180.695 26.0389 179.137 27.8286 179.137 29.8027C179.137 31.426 180.154 32.4843 181.777 32.4843C182.526 32.4843 183.459 32.0766 183.983 31.4935C183.935 31.6619 183.907 31.8355 183.899 32.0106C183.899 32.2025 183.983 32.3434 184.166 32.3434H185.599C185.824 32.3434 186.016 32.1021 186.058 31.8682L186.908 26.5141C186.933 26.3552 186.807 26.1888 186.641 26.1888ZM190.013 34.3415L195.318 26.6295C195.36 26.5875 195.36 26.5456 195.36 26.4886C195.36 26.3477 195.236 26.1978 195.093 26.1978H193.494C193.42 26.2007 193.347 26.2211 193.282 26.2573C193.217 26.2935 193.161 26.3445 193.119 26.4062L190.913 29.6543L189.997 26.5321C189.963 26.4371 189.9 26.3546 189.819 26.2953C189.737 26.236 189.639 26.2026 189.538 26.1993H187.981C187.838 26.1993 187.714 26.3492 187.714 26.4901C187.714 26.5905 189.337 31.2207 189.48 31.6614C189.255 31.9777 187.773 34.0432 187.773 34.2935C187.773 34.4434 187.897 34.5603 188.039 34.5603H189.639C189.714 34.5554 189.786 34.5334 189.851 34.4959C189.916 34.4585 189.972 34.4067 190.013 34.3444V34.3415ZM203.279 25.4558C203.279 23.7066 201.93 23.1235 200.389 23.1235H197.082C196.972 23.1226 196.864 23.1617 196.78 23.2336C196.696 23.3054 196.64 23.4053 196.624 23.5147L195.275 32.0091C195.258 32.1755 195.383 32.3419 195.541 32.3419H197.249C197.415 32.3419 197.54 32.2175 197.581 32.0751L197.956 29.6603C198.04 29.0607 199.056 29.2691 199.455 29.2691C201.82 29.2691 203.277 27.8541 203.277 25.4558H203.279ZM210.289 26.1888H208.706C208.39 26.1888 208.374 26.6475 208.348 26.8723C207.89 26.1648 207.182 26.0389 206.374 26.0389C204.334 26.0389 202.777 27.8286 202.777 29.8027C202.777 31.426 203.793 32.4843 205.416 32.4843C206.191 32.4843 207.124 32.0766 207.623 31.4935C207.597 31.6179 207.539 31.8847 207.539 32.0106C207.539 32.2025 207.623 32.3434 207.806 32.3434H209.246C209.471 32.3434 209.663 32.1021 209.705 31.8682L210.555 26.5141C210.58 26.3552 210.454 26.1888 210.288 26.1888H210.289ZM214.245 23.4158C214.245 23.2494 214.121 23.125 213.978 23.125H212.437C212.313 23.125 212.187 23.2254 212.17 23.3499L210.821 32.0106L210.797 32.0526C210.797 32.2025 210.922 32.3434 211.088 32.3434H212.463C212.671 32.3434 212.879 32.1021 212.896 31.8682L214.245 23.4413V23.4158ZM206.75 27.7297C205.734 27.7297 204.943 28.5376 204.943 29.5614C204.943 30.3693 205.526 30.81 206.292 30.81C207.292 30.81 208.099 30.044 208.099 29.0203C208.108 28.2049 207.525 27.7297 206.75 27.7297Z" fill="var(--fill-0, #5D5FEF)"/>
</g>
<path id="Vector_7" d="M273.531 25.4964C273.498 28.0776 275.832 29.5179 277.589 30.3743C279.395 31.2529 280.001 31.8164 279.994 32.6022C279.981 33.8047 278.554 34.3355 277.218 34.3561C274.889 34.3922 273.535 33.7272 272.458 33.2242L271.619 37.1509C272.699 37.6487 274.699 38.0829 276.774 38.1019C281.643 38.1019 284.829 35.6983 284.846 31.9715C284.865 27.2418 278.304 26.98 278.349 24.8659C278.364 24.2249 278.976 23.5408 280.316 23.3669C280.98 23.279 282.811 23.2118 284.888 24.1679L285.703 20.3688C284.586 19.9622 283.151 19.5729 281.364 19.5729C276.781 19.5729 273.557 22.0093 273.531 25.4964V25.4964ZM293.533 19.9001C292.644 19.9001 291.895 20.4188 291.561 21.2147L284.605 37.8229H289.471L290.439 35.1469H296.385L296.947 37.8229H301.235L297.493 19.9001H293.533V19.9001ZM294.214 24.7417L295.618 31.4719H291.773L294.214 24.7417V24.7417ZM267.632 19.9004L263.796 37.8226H268.433L272.267 19.8999H267.632V19.9004ZM260.772 19.8999L255.946 32.0991L253.994 21.7266C253.765 20.5687 252.86 19.9001 251.856 19.9001H243.966L243.856 20.4206C245.476 20.772 247.316 21.3389 248.431 21.9454C249.113 22.3159 249.307 22.6398 249.532 23.5202L253.229 37.8229H258.129L265.641 19.9001H260.772" fill="url(#paint0_linear_0_289)"/>
</g>
<defs>
<linearGradient id="paint0_linear_0_289" x1="270.236" y1="38.4736" x2="270.772" y2="19.444" gradientUnits="userSpaceOnUse">
<stop stop-color="#222357"/>
<stop offset="1" stop-color="#254AA5"/>
</linearGradient>
<clipPath id="clip0_0_289">
<rect width="57.3793" height="44.6034" fill="white" transform="translate(0 6.53568)"/>
</clipPath>
<clipPath id="clip1_0_289">
<rect width="57.6748" height="57.6748" fill="white" transform="translate(84.3248)"/>
</clipPath>
<clipPath id="clip2_0_289">
<rect width="47.9655" height="47.9655" fill="white" transform="translate(168.945 4.85464)"/>
</clipPath>
</defs>
</svg>
