<svg preserveAspectRatio="none" width="100%" height="100%" overflow="visible" style="display: block;" viewBox="0 0 24 24" fill="none" xmlns="http://www.w3.org/2000/svg">
<g id="24 / instagram">
<path id="Union" d="M16.5459 1.25C19.9598 1.25024 22.7498 4.04024 22.75 7.4541V16.5459C22.7498 19.9598 19.9598 22.7498 16.5459 22.75H7.4541C4.04024 22.7498 1.25024 19.9598 1.25 16.5459V7.4541C1.25024 4.04024 4.04024 1.25024 7.4541 1.25H16.5459ZM7.4541 2.75C4.86866 2.75024 2.75024 4.86866 2.75 7.4541V16.5459C2.75024 19.1313 4.86866 21.2498 7.4541 21.25H16.5459C19.1313 21.2498 21.2498 19.1313 21.25 16.5459V7.4541C21.2498 4.86866 19.1313 2.75024 16.5459 2.75H7.4541ZM12 7C14.7614 7 17 9.23858 17 12C17 14.7614 14.7614 17 12 17C9.23858 17 7 14.7614 7 12C7 9.23858 9.23858 7 12 7ZM12 8.5C10.067 8.5 8.5 10.067 8.5 12C8.5 13.933 10.067 15.5 12 15.5C13.933 15.5 15.5 13.933 15.5 12C15.5 10.067 13.933 8.5 12 8.5ZM17 5C17.5523 5 18 5.44772 18 6C18 6.55228 17.5523 7 17 7C16.4477 7 16 6.55228 16 6C16 5.44772 16.4477 5 17 5Z" fill="var(--fill-0, #6E7491)"/>
</g>
</svg>
