<svg preserveAspectRatio="none" width="100%" height="100%" overflow="visible" style="display: block;" viewBox="0 0 24 24" fill="none" xmlns="http://www.w3.org/2000/svg">
<g id="Location">
<path id="Vector" d="M20.4599 9.62994C20.3195 8.16886 19.8031 6.76903 18.9611 5.56676C18.119 4.3645 16.98 3.40077 15.6549 2.76944C14.3298 2.1381 12.8638 1.86066 11.3996 1.96415C9.93543 2.06763 8.52301 2.5485 7.29988 3.35994C6.24908 4.06259 5.36693 4.98924 4.71682 6.07333C4.06672 7.15743 3.66478 8.37205 3.53988 9.62994C3.41736 10.8796 3.57455 12.1409 4.00005 13.3222C4.42555 14.5036 5.10868 15.5754 5.99988 16.4599L11.2999 21.7699C11.3928 21.8637 11.5034 21.9381 11.6253 21.9888C11.7472 22.0396 11.8779 22.0657 12.0099 22.0657C12.1419 22.0657 12.2726 22.0396 12.3945 21.9888C12.5163 21.9381 12.6269 21.8637 12.7199 21.7699L17.9999 16.4599C18.8911 15.5754 19.5742 14.5036 19.9997 13.3222C20.4252 12.1409 20.5824 10.8796 20.4599 9.62994V9.62994ZM16.5999 15.0499L11.9999 19.6499L7.39988 15.0499C6.72197 14.372 6.20268 13.5523 5.87935 12.6497C5.55601 11.7471 5.43667 10.7841 5.52988 9.82994C5.6237 8.86105 5.93164 7.9251 6.43145 7.08979C6.93126 6.25447 7.61044 5.54065 8.41988 4.99994C9.48083 4.29518 10.7262 3.91924 11.9999 3.91924C13.2736 3.91924 14.5189 4.29518 15.5799 4.99994C16.3869 5.53856 17.0646 6.24922 17.5642 7.08088C18.0639 7.91254 18.3732 8.84454 18.4699 9.80994C18.5661 10.7674 18.4483 11.7342 18.1249 12.6405C17.8014 13.5468 17.2805 14.3698 16.5999 15.0499V15.0499ZM11.9999 5.99994C11.1099 5.99994 10.2398 6.26386 9.49982 6.75833C8.75979 7.2528 8.18302 7.9556 7.84242 8.77787C7.50183 9.60013 7.41271 10.5049 7.58635 11.3778C7.75998 12.2508 8.18856 13.0526 8.8179 13.6819C9.44724 14.3113 10.2491 14.7398 11.122 14.9135C11.9949 15.0871 12.8997 14.998 13.722 14.6574C14.5442 14.3168 15.247 13.74 15.7415 13C16.236 12.26 16.4999 11.39 16.4999 10.4999C16.4972 9.30728 16.0223 8.16422 15.1789 7.32088C14.3356 6.47754 13.1925 6.00258 11.9999 5.99994V5.99994ZM11.9999 12.9999C11.5054 12.9999 11.0221 12.8533 10.611 12.5786C10.1998 12.3039 9.8794 11.9135 9.69018 11.4567C9.50096 10.9998 9.45145 10.4972 9.54792 10.0122C9.64438 9.52726 9.88248 9.08181 10.2321 8.73218C10.5817 8.38254 11.0272 8.14444 11.5122 8.04798C11.9971 7.95152 12.4998 8.00102 12.9566 8.19024C13.4134 8.37946 13.8039 8.69989 14.0786 9.11102C14.3533 9.52214 14.4999 10.0055 14.4999 10.4999C14.4999 11.163 14.2365 11.7989 13.7676 12.2677C13.2988 12.7366 12.6629 12.9999 11.9999 12.9999V12.9999Z" fill="var(--fill-0, #5D5FEF)"/>
</g>
</svg>
