<svg preserveAspectRatio="none" width="100%" height="100%" overflow="visible" style="display: block;" viewBox="0 0 39 50" fill="none" xmlns="http://www.w3.org/2000/svg">
<g id="Frame 87">
<path id="Vector" d="M29.7889 21.8947L23.1938 20.9366L20.2455 14.9622C20.165 14.7986 20.0325 14.6662 19.8689 14.5857C19.4585 14.3832 18.9598 14.5519 18.7546 14.9622L15.8063 20.9366L9.21117 21.8947C9.02934 21.9207 8.8631 22.0063 8.73582 22.1362C8.58194 22.2943 8.49715 22.5069 8.50007 22.7275C8.503 22.948 8.59339 23.1584 8.7514 23.3124L13.5231 27.9626L12.3958 34.529C12.3693 34.6818 12.3862 34.8389 12.4446 34.9825C12.5029 35.1261 12.6003 35.2505 12.7258 35.3416C12.8513 35.4327 12.9998 35.4869 13.1545 35.4979C13.3092 35.5089 13.4639 35.4764 13.601 35.404L19.5001 32.3039L25.3991 35.404C25.5601 35.4897 25.7472 35.5183 25.9264 35.4871C26.3784 35.4092 26.6823 34.9808 26.6043 34.529L25.477 27.9626L30.2487 23.3124C30.3786 23.1851 30.4643 23.019 30.4903 22.8372C30.5604 22.3828 30.2435 21.9622 29.7889 21.8947V21.8947Z" fill="var(--fill-0, #5D5FEF)"/>
</g>
</svg>
