<svg preserveAspectRatio="none" width="100%" height="100%" overflow="visible" style="display: block;" viewBox="0 0 54 50.4781" fill="none" xmlns="http://www.w3.org/2000/svg">
<g id="Group">
<path id="Vector" d="M54 3.78604C53.999 2.78208 53.6572 1.81977 53.0502 1.10988C52.4427 0.400566 51.6192 0.00112498 50.76 0H3.24003C2.38086 0.00112671 1.55733 0.400566 0.949818 1.10988C0.342797 1.81976 0.000962741 2.78207 0 3.78604V18.93C0 18.956 0.0115717 18.9779 0.0125357 19.0033C0.0135 19.0269 0.00433919 19.0495 0.00674999 19.0731L0.794086 27.1246C0.917996 28.0096 1.30806 28.8142 1.89336 29.3939C2.47917 29.9736 3.22219 30.2902 3.98967 30.288H50.0099C50.7862 30.2874 51.5364 29.9606 52.1242 29.3685C52.7124 28.7758 53.0986 27.9566 53.2133 27.0597L53.9929 19.073C53.9954 19.0494 53.9862 19.0268 53.9872 19.0032C53.9881 18.9778 53.9997 18.9558 53.9997 18.9299L54 3.78604ZM2.16007 3.78604C2.16103 3.08969 2.64414 2.52517 3.24007 2.52404H50.76C51.3559 2.52517 51.839 3.08969 51.84 3.78604V17.668H2.16007V3.78604ZM48.363 20.192L47.8891 22.9634H47.8886C47.7869 23.5527 47.3438 23.9764 46.8293 23.9781H7.17179C6.65734 23.9764 6.21426 23.5527 6.11205 22.9634L5.63811 20.192H48.363ZM51.0756 26.7089C50.9903 27.3185 50.539 27.7658 50.0106 27.7641H3.99028C3.48065 27.7714 3.03756 27.3568 2.93294 26.7737L2.29073 20.1921H3.43533L3.99413 23.4586C4.14263 24.316 4.53992 25.0873 5.11849 25.6417C5.69754 26.1961 6.42263 26.5004 7.17147 26.502H46.829C47.5778 26.5004 48.3029 26.1961 48.882 25.6417C49.4606 25.0874 49.8579 24.3161 50.0064 23.4586L50.5652 20.1921H51.7102L51.0756 26.7089Z" fill="var(--fill-0, #5D5FEF)"/>
<path id="Vector_2" d="M14.04 15.144H39.96C40.5564 15.144 41.04 14.5789 41.04 13.882C41.04 13.1851 40.5564 12.62 39.96 12.62H14.04C13.4436 12.62 12.96 13.1851 12.96 13.882C12.96 14.5789 13.4436 15.144 14.04 15.144Z" fill="var(--fill-0, #5D5FEF)"/>
<path id="Vector_3" d="M46.44 7.57178H48.6C49.1964 7.57178 49.68 7.00679 49.68 6.31C49.68 5.61321 49.1964 5.04822 48.6 5.04822H46.44C45.8436 5.04822 45.36 5.61321 45.36 6.31C45.36 7.00679 45.8436 7.57178 46.44 7.57178Z" fill="var(--fill-0, #5D5FEF)"/>
<path id="Vector_4" d="M41.5794 7.57178H42.6594C43.2558 7.57178 43.7394 7.00679 43.7394 6.31C43.7394 5.61321 43.2558 5.04822 42.6594 5.04822H41.5794C40.983 5.04822 40.4995 5.61321 40.4995 6.31C40.4995 7.00679 40.983 7.57178 41.5794 7.57178Z" fill="var(--fill-0, #5D5FEF)"/>
<path id="Vector_5" d="M14.5227 32.9447C13.9904 32.6366 13.3453 32.8878 13.0777 33.5076C12.8106 34.1273 13.0218 34.8828 13.5502 35.1989C14.4195 35.7257 15.0078 36.7229 15.1196 37.8598C15.1196 39.0633 14.4952 39.6689 13.3916 40.6363C12.2364 41.6481 10.7996 42.9079 10.7996 45.4319C10.9091 47.525 11.9577 49.3943 13.5565 50.347C14.0883 50.6546 14.7329 50.4028 15 49.7836C15.2671 49.1644 15.0569 48.4095 14.529 48.0928C13.6597 47.566 13.0714 46.5689 12.9596 45.4319C12.9596 44.2285 13.5839 43.6228 14.6876 42.6555C15.8428 41.6436 17.2796 40.3838 17.2796 37.8598C17.1701 35.7668 16.1215 33.8974 14.5227 32.9447L14.5227 32.9447Z" fill="var(--fill-0, #5D5FEF)"/>
<path id="Vector_6" d="M23.1628 32.9447C22.6305 32.6366 21.9854 32.8878 21.7178 33.5076C21.4507 34.1273 21.6619 34.8828 22.1903 35.1989C23.0596 35.7257 23.6479 36.7229 23.7597 37.8598C23.7597 39.0633 23.1353 39.6689 22.0317 40.6363C20.8765 41.6481 19.4397 42.9079 19.4397 45.4319C19.5491 47.525 20.5978 49.3943 22.1966 50.347C22.7284 50.6546 23.373 50.4028 23.6401 49.7836C23.9072 49.1644 23.697 48.4095 23.169 48.0928C22.2997 47.566 21.7115 46.5689 21.5996 45.4319C21.5996 44.2285 22.224 43.6228 23.3276 42.6555C24.4829 41.6436 25.9196 40.3838 25.9196 37.8598C25.8102 35.7668 24.7615 33.8974 23.1627 32.9447L23.1628 32.9447Z" fill="var(--fill-0, #5D5FEF)"/>
<path id="Vector_7" d="M31.8026 32.9447C31.2703 32.6366 30.6252 32.8878 30.3576 33.5076C30.0905 34.1273 30.3017 34.8828 30.8301 35.1989C31.6994 35.7257 32.2877 36.7229 32.3995 37.8598C32.3995 39.0633 31.7752 39.6689 30.6715 40.6363C29.5163 41.6481 28.0795 42.9079 28.0795 45.4319C28.189 47.525 29.2376 49.3943 30.8364 50.347C31.3682 50.6546 32.0129 50.4028 32.2799 49.7836C32.547 49.1644 32.3368 48.4095 31.8089 48.0928C30.9396 47.566 30.3513 46.5689 30.2395 45.4319C30.2395 44.2285 30.8639 43.6228 31.9675 42.6555C33.1227 41.6436 34.5595 40.3838 34.5595 37.8598C34.45 35.7668 33.4014 33.8974 31.8026 32.9447L31.8026 32.9447Z" fill="var(--fill-0, #5D5FEF)"/>
<path id="Vector_8" d="M40.4426 32.9447C39.9103 32.6366 39.2652 32.8878 38.9976 33.5076C38.7305 34.1273 38.9417 34.8828 39.4701 35.1989C40.3394 35.7257 40.9277 36.7229 41.0395 37.8598C41.0395 39.0633 40.4151 39.6689 39.3115 40.6363C38.1563 41.6481 36.7195 42.9079 36.7195 45.4319C36.829 47.525 37.8776 49.3943 39.4764 50.347C40.0082 50.6546 40.6528 50.4028 40.9199 49.7836C41.187 49.1644 40.9768 48.4095 40.4489 48.0928C39.5795 47.566 38.9913 46.5689 38.8795 45.4319C38.8795 44.2285 39.5038 43.6228 40.6075 42.6555C41.7627 41.6436 43.1995 40.3838 43.1995 37.8598C43.09 35.7668 42.0414 33.8974 40.4426 32.9447L40.4426 32.9447Z" fill="var(--fill-0, #5D5FEF)"/>
</g>
</svg>
