<svg preserveAspectRatio="none" width="100%" height="100%" overflow="visible" style="display: block;" viewBox="0 0 39 39" fill="none" xmlns="http://www.w3.org/2000/svg">
<g id="ant-design:clock-circle-filled">
<path id="Vector" d="M19.5 2.4375C10.0775 2.4375 2.4375 10.0775 2.4375 19.5C2.4375 28.9225 10.0775 36.5625 19.5 36.5625C28.9225 36.5625 36.5625 28.9225 36.5625 19.5C36.5625 10.0775 28.9225 2.4375 19.5 2.4375ZM26.2222 24.7444L25.1329 26.2298C25.1092 26.2621 25.0794 26.2895 25.0451 26.3102C25.0108 26.331 24.9727 26.3448 24.9331 26.3508C24.8934 26.3568 24.853 26.355 24.8141 26.3453C24.7752 26.3356 24.7386 26.3184 24.7063 26.2945L18.4069 21.7014C18.3677 21.6732 18.3358 21.636 18.3139 21.5929C18.292 21.5498 18.2808 21.5021 18.2812 21.4538V10.9688C18.2812 10.8012 18.4184 10.6641 18.5859 10.6641H20.4179C20.5854 10.6641 20.7226 10.8012 20.7226 10.9688V20.395L26.1536 24.3217C26.2907 24.4169 26.3212 24.6073 26.2222 24.7444Z" fill="var(--fill-0, #5D5FEF)"/>
</g>
</svg>
