<svg preserveAspectRatio="none" width="100%" height="100%" overflow="visible" style="display: block;" viewBox="0 0 156.667 156.668" fill="none" xmlns="http://www.w3.org/2000/svg">
<g id="bx:home" filter="url(#filter0_d_0_252)">
<rect x="28" y="25" width="96.6669" height="96.6681" rx="48.3335" fill="var(--fill-0, #5D5FEF)"/>
<path id="Vector" d="M59.833 75.1676H61.6664V88.0013C61.6664 90.0236 63.3109 91.6681 65.3332 91.6681H87.3338C89.356 91.6681 91.0006 90.0236 91.0006 88.0013V75.1676H92.834C93.1965 75.1675 93.5509 75.06 93.8523 74.8585C94.1538 74.6571 94.3887 74.3707 94.5274 74.0358C94.6661 73.7008 94.7025 73.3323 94.6317 72.9767C94.561 72.6211 94.3865 72.2944 94.1302 72.038L77.6297 55.5376C77.4596 55.3671 77.2575 55.232 77.0351 55.1397C76.8127 55.0475 76.5743 55 76.3335 55C76.0927 55 75.8543 55.0475 75.6319 55.1397C75.4094 55.232 75.2074 55.3671 75.0373 55.5376L58.5368 72.038C58.2805 72.2944 58.1059 72.6211 58.0352 72.9767C57.9645 73.3323 58.0008 73.7008 58.1395 74.0358C58.2783 74.3707 58.5132 74.6571 58.8146 74.8585C59.1161 75.06 59.4704 75.1675 59.833 75.1676ZM72.6667 88.0013V78.8344H80.0003V88.0013H72.6667ZM76.3335 59.4262L87.3338 70.4265V78.8344L87.3356 88.0013H83.667V78.8344C83.667 76.8122 82.0225 75.1676 80.0003 75.1676H72.6667C70.6445 75.1676 68.9999 76.8122 68.9999 78.8344V88.0013H65.3332V70.4265L76.3335 59.4262Z" fill="var(--fill-0, white)"/>
</g>
<defs>
<filter id="filter0_d_0_252" x="0" y="0" width="156.667" height="156.668" filterUnits="userSpaceOnUse" color-interpolation-filters="sRGB">
<feFlood flood-opacity="0" result="BackgroundImageFix"/>
<feColorMatrix in="SourceAlpha" type="matrix" values="0 0 0 0 0 0 0 0 0 0 0 0 0 0 0 0 0 0 127 0" result="hardAlpha"/>
<feOffset dx="2" dy="5"/>
<feGaussianBlur stdDeviation="15"/>
<feComposite in2="hardAlpha" operator="out"/>
<feColorMatrix type="matrix" values="0 0 0 0 0.364706 0 0 0 0 0.372549 0 0 0 0 0.937255 0 0 0 0.25 0"/>
<feBlend mode="normal" in2="BackgroundImageFix" result="effect1_dropShadow_0_252"/>
<feBlend mode="normal" in="SourceGraphic" in2="effect1_dropShadow_0_252" result="shape"/>
</filter>
</defs>
</svg>
