<svg preserveAspectRatio="none" width="100%" height="100%" overflow="visible" style="display: block;" viewBox="0 0 61.3944 32.3702" fill="none" xmlns="http://www.w3.org/2000/svg">
<g id="Group">
<path id="Vector" d="M6.40011 26.2215H8.2832C8.89257 29.7086 11.935 32.3702 15.5952 32.3702C19.2542 32.3702 22.2966 29.7086 22.9059 26.2215H37.386C37.9953 29.7086 41.0373 32.3702 44.6967 32.3702C48.3565 32.3702 51.3993 29.7086 52.0087 26.2215H58.8832C60.268 26.2215 61.3944 25.0951 61.3944 23.7103V16.8014C61.3944 13.2728 58.523 10.4014 54.9944 10.4014H47.3583C42.648 5.90274 40.4257 0 33.5377 0H18.1137C14.6111 0 11.3901 1.75943 9.49634 4.70674L5.84149 10.4009L1.27989 10.4014C0.572297 10.4014 0 10.9746 0 11.6812V19.8215C0 23.3505 2.87154 26.2215 6.40011 26.2215ZM15.5952 29.8103C12.9158 29.8103 10.7362 27.6349 10.7269 24.9581C10.7273 24.9523 10.7304 24.9473 10.7304 24.9415C10.7304 24.9357 10.7273 24.9308 10.7269 24.925C10.7362 22.2478 12.9161 20.0723 15.5952 20.0723C18.28 20.0723 20.464 22.2567 20.464 24.9415C20.464 27.6258 18.2801 29.8103 15.5952 29.8103ZM44.6969 29.8103C42.0121 29.8103 39.8281 27.6259 39.8281 24.9415C39.8281 22.2567 42.012 20.0723 44.6969 20.0723C47.3791 20.0723 49.5616 22.2522 49.5661 24.9335C49.5661 24.9366 49.5647 24.9388 49.5647 24.942C49.5647 24.9446 49.5661 24.9473 49.5661 24.9505C49.5616 27.6303 47.379 29.8103 44.6969 29.8103ZM43.938 10.4011H27.6603V2.56011H33.538C38.7054 2.56011 40.3991 7.01863 43.938 10.4011ZM11.6523 6.09086C13.0724 3.88011 15.4871 2.56 18.1148 2.56H25.101V10.401H8.88382L11.6523 6.09086ZM2.56073 12.9614H54.995C57.1124 12.9614 58.8353 14.6837 58.8353 16.8016L58.8839 23.6614H52.0094C51.4 20.1734 48.3581 17.5118 44.6974 17.5118C41.0384 17.5118 37.996 20.1734 37.3867 23.6614H22.9067C22.2973 20.1734 19.2553 17.5118 15.5959 17.5118C11.9357 17.5118 8.89328 20.1734 8.28391 23.6614H6.40128C4.28391 23.6614 2.56105 21.9391 2.56105 19.8211L2.56073 12.9614Z" fill="var(--fill-0, #5D5FEF)"/>
</g>
</svg>
