<svg preserveAspectRatio="none" width="100%" height="100%" overflow="visible" style="display: block;" viewBox="0 0 36 36" fill="none" xmlns="http://www.w3.org/2000/svg">
<g id="ph:paw-print-bold">
<path id="Vector" d="M26.5781 20.4328C26.0722 20.155 25.6264 19.7795 25.2667 19.3281C24.9071 18.8767 24.6406 18.3583 24.4828 17.8031C24.0755 16.3988 23.2232 15.1647 22.054 14.2865C20.8849 13.4083 19.4622 12.9335 18 12.9335C16.5378 12.9335 15.1151 13.4083 13.946 14.2865C12.7769 15.1647 11.9245 16.3988 11.5172 17.8031C11.3594 18.3583 11.093 18.8767 10.7333 19.3281C10.3736 19.7795 9.92783 20.155 9.42188 20.4328C8.21027 21.0883 7.25203 22.1293 6.699 23.3909C6.14596 24.6526 6.02976 26.0627 6.3688 27.3979C6.70783 28.733 7.48273 29.9169 8.57069 30.7618C9.65865 31.6068 10.9975 32.0645 12.375 32.0625C13.2 32.0603 14.0166 31.898 14.7797 31.5844C15.8002 31.1597 16.8946 30.941 18 30.941C19.1054 30.941 20.1998 31.1597 21.2203 31.5844C21.9834 31.898 22.8 32.0603 23.625 32.0625C25.0025 32.0645 26.3414 31.6068 27.4293 30.7618C28.5173 29.9169 29.2922 28.733 29.6312 27.3979C29.9702 26.0627 29.854 24.6526 29.301 23.3909C28.748 22.1293 27.7897 21.0883 26.5781 20.4328ZM23.625 28.6875C23.2476 28.6904 22.8739 28.6137 22.5281 28.4625H22.5141C21.0833 27.8683 19.5493 27.5625 18 27.5625C16.4507 27.5625 14.9167 27.8683 13.4859 28.4625H13.4719C13.1261 28.6137 12.7524 28.6904 12.375 28.6875C11.749 28.6875 11.1408 28.4787 10.6469 28.094C10.153 27.7094 9.80147 27.1709 9.64812 26.564C9.49476 25.957 9.5483 25.3162 9.80025 24.7431C10.0522 24.17 10.4882 23.6974 11.0391 23.4H11.0531C12.8552 22.4044 14.1899 20.736 14.7656 18.7594C14.9646 18.0549 15.3882 17.4346 15.972 16.9928C16.5558 16.5511 17.2679 16.3121 18 16.3121C18.7321 16.3121 19.4442 16.5511 20.028 16.9928C20.6118 17.4346 21.0354 18.0549 21.2344 18.7594C21.8101 20.736 23.1448 22.4044 24.9469 23.4H24.9609C25.5119 23.6974 25.9478 24.17 26.1998 24.7431C26.4517 25.3162 26.5052 25.957 26.3519 26.564C26.1985 27.1709 25.8471 27.7094 25.3531 28.094C24.8592 28.4787 24.251 28.6875 23.625 28.6875V28.6875ZM32.625 14.625C32.625 15.2925 32.4271 15.945 32.0562 16.5C31.6854 17.0551 31.1583 17.4876 30.5416 17.7431C29.9249 17.9985 29.2463 18.0654 28.5916 17.9352C27.9369 17.8049 27.3355 17.4835 26.8635 17.0115C26.3915 16.5395 26.0701 15.9381 25.9399 15.2834C25.8096 14.6287 25.8765 13.9501 26.1319 13.3334C26.3874 12.7167 26.8199 12.1896 27.375 11.8188C27.93 11.4479 28.5825 11.25 29.25 11.25C29.6937 11.2481 30.1334 11.3342 30.5438 11.5031C30.9541 11.6721 31.3269 11.9206 31.6406 12.2344C31.9544 12.5481 32.2029 12.9209 32.3719 13.3312C32.5408 13.7416 32.6269 14.1813 32.625 14.625V14.625ZM6.75 18C6.08249 18 5.42997 17.8021 4.87495 17.4312C4.31993 17.0604 3.88735 16.5333 3.63191 15.9166C3.37646 15.2999 3.30962 14.6213 3.43985 13.9666C3.57007 13.3119 3.89151 12.7105 4.36351 12.2385C4.83552 11.7665 5.43688 11.4451 6.09157 11.3148C6.74626 11.1846 7.42486 11.2515 8.04156 11.5069C8.65826 11.7624 9.18536 12.1949 9.55621 12.7499C9.92706 13.305 10.125 13.9575 10.125 14.625C10.1269 15.0687 10.0408 15.5084 9.87188 15.9188C9.70293 16.3291 9.4544 16.7019 9.14063 17.0156C8.82687 17.3294 8.45407 17.5779 8.04375 17.7469C7.63344 17.9158 7.19373 18.0019 6.75 18V18ZM10.125 7.875C10.125 7.20749 10.3229 6.55497 10.6938 5.99995C11.0646 5.44493 11.5917 5.01235 12.2084 4.75691C12.8251 4.50146 13.5037 4.43462 14.1584 4.56485C14.8131 4.69507 15.4145 5.01651 15.8865 5.48851C16.3585 5.96052 16.6799 6.56188 16.8102 7.21657C16.9404 7.87126 16.8735 8.54986 16.6181 9.16656C16.3626 9.78326 15.9301 10.3104 15.3751 10.6812C14.82 11.0521 14.1675 11.25 13.5 11.25C13.0563 11.2519 12.6166 11.1658 12.2062 10.9969C11.7959 10.8279 11.4231 10.5794 11.1094 10.2656C10.7956 9.95186 10.5471 9.57907 10.3781 9.16875C10.2092 8.75844 10.1231 8.31873 10.125 7.875V7.875ZM19.125 7.875C19.125 7.20749 19.3229 6.55497 19.6938 5.99995C20.0646 5.44493 20.5917 5.01235 21.2084 4.75691C21.8251 4.50146 22.5037 4.43462 23.1584 4.56485C23.8131 4.69507 24.4145 5.01651 24.8865 5.48851C25.3585 5.96052 25.6799 6.56188 25.8102 7.21657C25.9404 7.87126 25.8735 8.54986 25.6181 9.16656C25.3627 9.78326 24.9301 10.3104 24.3751 10.6812C23.82 11.0521 23.1675 11.25 22.5 11.25C22.0563 11.2519 21.6166 11.1658 21.2062 10.9969C20.7959 10.8279 20.4231 10.5794 20.1094 10.2656C19.7956 9.95186 19.5471 9.57907 19.3781 9.16875C19.2092 8.75844 19.1231 8.31873 19.125 7.875V7.875Z" fill="var(--fill-0, #5D5FEF)"/>
</g>
</svg>
