<svg preserveAspectRatio="none" width="100%" height="100%" overflow="visible" style="display: block;" viewBox="0 0 31.5 36" fill="none" xmlns="http://www.w3.org/2000/svg">
<g id="Group">
<path id="Vector" fill-rule="evenodd" clip-rule="evenodd" d="M15.75 0C14.1975 0 11.6033 0.59625 9.16201 1.26C6.66451 1.935 4.14676 2.73375 2.66626 3.2175C2.04727 3.42192 1.49849 3.7968 1.08298 4.29908C0.667459 4.80136 0.402058 5.41066 0.317262 6.057C-1.02374 16.1303 2.08801 23.5958 5.86351 28.5345C7.46457 30.6472 9.37357 32.5076 11.5268 34.0538C12.3953 34.668 13.2008 35.1383 13.8848 35.46C14.5148 35.757 15.192 36 15.75 36C16.308 36 16.983 35.757 17.6153 35.46C18.4399 35.0592 19.2287 34.5888 19.9733 34.0538C22.1265 32.5077 24.0355 30.6472 25.6365 28.5345C29.412 23.5958 32.5238 16.1303 31.1828 6.057C31.0981 5.41035 30.8328 4.80069 30.4173 4.29802C30.0018 3.79536 29.4529 3.42007 28.8338 3.21525C26.6846 2.51058 24.5187 1.85789 22.338 1.25775C19.8968 0.5985 17.3025 0 15.75 0ZM15.75 11.25C16.547 11.2488 17.3188 11.5297 17.9285 12.043C18.5383 12.5563 18.9467 13.2689 19.0815 14.0544C19.2162 14.84 19.0686 15.6479 18.6647 16.3351C18.2609 17.0222 17.6269 17.5443 16.875 17.8087L17.7413 22.2862C17.7728 22.4491 17.7679 22.6169 17.727 22.7777C17.686 22.9384 17.61 23.0881 17.5045 23.216C17.3989 23.344 17.2663 23.447 17.1163 23.5177C16.9662 23.5884 16.8024 23.625 16.6365 23.625H14.8635C14.6978 23.6247 14.5343 23.5878 14.3845 23.517C14.2347 23.4461 14.1024 23.3431 13.9971 23.2152C13.8918 23.0873 13.816 22.9377 13.7752 22.7771C13.7344 22.6165 13.7295 22.4489 13.761 22.2862L14.625 17.8087C13.8731 17.5443 13.2391 17.0222 12.8353 16.3351C12.4314 15.6479 12.2838 14.84 12.4186 14.0544C12.5533 13.2689 12.9617 12.5563 13.5715 12.043C14.1812 11.5297 14.953 11.2488 15.75 11.25V11.25Z" fill="var(--fill-0, #4D4A4A)"/>
</g>
</svg>
