<svg preserveAspectRatio="none" width="100%" height="100%" overflow="visible" style="display: block;" viewBox="0 0 44 44" fill="none" xmlns="http://www.w3.org/2000/svg">
<g id="Group">
<path id="Vector" fill-rule="evenodd" clip-rule="evenodd" d="M29.2584 21.9993C29.2584 17.9891 26.0102 14.7409 22 14.7409C17.9898 14.7409 14.7417 17.9891 14.7417 21.9993C14.7417 26.0016 17.9969 29.2576 22 29.2576C26.0031 29.2576 29.2584 26.0024 29.2584 21.9993ZM22 16.7019C24.9258 16.7019 27.2978 19.0735 27.2978 21.9996C27.2978 24.9344 24.9351 27.298 22 27.298C19.0652 27.298 16.7022 24.9344 16.7022 21.9996C16.7022 19.0735 19.0742 16.7019 22 16.7019V16.7019ZM25.6238 13.122C28.0015 14.0909 29.9084 16.0006 30.8792 18.3764L32.3601 16.8955C31.2426 14.6234 29.3787 12.7595 27.1066 11.6401L25.6238 13.122ZM28.8526 9.89411C31.0376 11.1332 32.8671 12.9636 34.1071 15.1486L35.5389 13.7168C34.2339 11.5865 32.4141 9.76729 30.2844 8.4623L28.8526 9.89411ZM9.89411 15.1476C11.1332 12.9626 12.9636 11.1331 15.1486 9.89317L13.7168 8.46136C11.5865 9.76635 9.76729 11.5855 8.4623 13.7158L9.89411 15.1476ZM16.8947 11.6393C14.6216 12.7595 12.7605 14.6207 11.6402 16.8937L13.1211 18.3755C14.0901 15.9987 15.9997 14.09 18.3756 13.121L16.8947 11.6393ZM18.3764 30.8783C16.0006 29.9093 14.0909 27.9996 13.122 25.6238L11.6402 27.1056C12.7605 29.3786 14.6216 31.2398 16.8947 32.3591L18.3764 30.8783ZM15.1476 34.1061C12.9626 32.8671 11.1322 31.0367 9.89317 28.8517L8.46136 30.2835C9.76635 32.4138 11.5861 34.2329 13.7158 35.5379L15.1476 34.1061ZM30.8784 25.6236C29.9095 28.0013 27.9998 29.9091 25.624 30.879L27.1049 32.3599C29.3761 31.2424 31.2409 29.3785 32.3603 27.1064L30.8784 25.6236ZM34.1063 28.8514C32.8672 31.0364 31.0368 32.8668 28.8518 34.1059L30.2836 35.5377C32.4139 34.2327 34.2331 32.4129 35.5381 30.2832L34.1063 28.8514ZM22 44C34.1511 44.0009 44.0008 34.1511 44 22C44.0009 9.84893 34.1511 -0.00078565 22 6.45516e-08C9.84893 -0.000920714 -0.00078565 9.84893 6.45516e-08 22C-0.000920714 34.1511 9.84893 44.0008 22 44ZM22 2.49936C32.7706 2.49936 41.4999 11.2294 41.4999 21.9992C41.4999 32.7706 32.7698 41.4999 22 41.4999C11.2294 41.4999 2.50014 32.7706 2.50014 22C2.50014 11.2294 11.2294 2.49936 22 2.49936V2.49936ZM19.0837 22C19.0837 23.6104 20.3896 24.9163 22 24.9163C23.6104 24.9154 24.9163 23.6104 24.9163 22C24.9163 20.3896 23.6104 19.0837 22 19.0837C20.3896 19.0837 19.0837 20.3896 19.0837 22Z" fill="var(--fill-0, #5D5FEF)"/>
</g>
</svg>
