<svg preserveAspectRatio="none" width="100%" height="100%" overflow="visible" style="display: block;" viewBox="0 0 22 21.2414" fill="none" xmlns="http://www.w3.org/2000/svg">
<g id="Frame 87">
<path id="Vector" d="M18.7692 8.24892L13.7892 7.51715L11.563 2.95399C11.5022 2.82905 11.4021 2.72791 11.2786 2.66644C10.9687 2.51175 10.5921 2.64066 10.4371 2.95399L8.21091 7.51715L3.23088 8.24892C3.09358 8.26875 2.96805 8.33419 2.87194 8.43335C2.75575 8.55409 2.69173 8.71654 2.69393 8.88499C2.69614 9.05344 2.7644 9.21411 2.88371 9.3317L6.48683 12.8835L5.63557 17.8988C5.61561 18.0154 5.62838 18.1354 5.67243 18.2451C5.71649 18.3548 5.79006 18.4499 5.88481 18.5194C5.97956 18.589 6.0917 18.6304 6.2085 18.6388C6.32531 18.6472 6.44211 18.6224 6.54567 18.5671L11 16.1992L15.4544 18.5671C15.576 18.6325 15.7172 18.6543 15.8526 18.6305C16.1939 18.5711 16.4233 18.2438 16.3645 17.8988L15.5133 12.8835L19.1164 9.3317C19.2144 9.23453 19.2792 9.10761 19.2988 8.96879C19.3517 8.62174 19.1124 8.30048 18.7692 8.24892V8.24892Z" fill="var(--fill-0, #5D5FEF)"/>
</g>
</svg>
