<svg preserveAspectRatio="none" width="100%" height="100%" overflow="visible" style="display: block;" viewBox="0 0 51 49.7857" fill="none" xmlns="http://www.w3.org/2000/svg">
<g id="Frame 87">
<path id="Vector" d="M37.9358 21.0965L29.9645 19.9252L26.4011 12.6212C26.3038 12.4212 26.1437 12.2593 25.9459 12.1609C25.4498 11.9133 24.847 12.1196 24.599 12.6212L21.0356 19.9252L13.0644 21.0965C12.8446 21.1282 12.6437 21.233 12.4898 21.3917C12.3039 21.585 12.2014 21.845 12.2049 22.1146C12.2084 22.3842 12.3177 22.6414 12.5087 22.8296L18.276 28.5148L16.9134 36.5425C16.8815 36.7293 16.9019 36.9213 16.9724 37.0969C17.0429 37.2725 17.1607 37.4246 17.3124 37.536C17.464 37.6474 17.6435 37.7135 17.8305 37.727C18.0175 37.7405 18.2044 37.7007 18.3702 37.6123L25.5001 33.8222L32.6299 37.6123C32.8246 37.717 33.0506 37.7519 33.2673 37.7138C33.8136 37.6186 34.1809 37.0948 34.0867 36.5425L32.7241 28.5148L38.4915 22.8296C38.6484 22.6741 38.752 22.4709 38.7834 22.2487C38.8682 21.6932 38.4852 21.179 37.9358 21.0965V21.0965Z" fill="var(--fill-0, #5D5FEF)"/>
</g>
</svg>
