<svg preserveAspectRatio="none" width="100%" height="100%" overflow="visible" style="display: block;" viewBox="0 0 26.5904 25.6735" fill="none" xmlns="http://www.w3.org/2000/svg">
<path id="Vector" d="M25.7309 9.04036L17.7597 7.86905L14.1963 0.565033C14.099 0.365054 13.9389 0.203166 13.7411 0.104763C13.245 -0.142831 12.6422 0.0634974 12.3942 0.565033L8.83083 7.86905L0.859556 9.04036C0.639788 9.0721 0.438858 9.17685 0.285021 9.33557C0.09904 9.52884 -0.00344378 9.78886 8.83651e-05 10.0585C0.00362051 10.3281 0.11288 10.5853 0.303858 10.7735L6.07118 16.4586L4.70862 24.4864C4.67667 24.6731 4.69711 24.8652 4.76762 25.0408C4.83813 25.2164 4.9559 25.3685 5.10756 25.4799C5.25922 25.5912 5.43871 25.6574 5.62568 25.6709C5.81265 25.6844 5.99961 25.6446 6.16537 25.5561L13.2953 21.766L20.4251 25.5561C20.6198 25.6609 20.8458 25.6958 21.0625 25.6577C21.6087 25.5625 21.9761 25.0387 21.8819 24.4864L20.5193 16.4586L26.2866 10.7735C26.4436 10.618 26.5472 10.4148 26.5786 10.1926C26.6634 9.63712 26.2804 9.12289 25.7309 9.04036V9.04036Z" fill="var(--fill-0, #5D5FEF)"/>
</svg>
