<svg preserveAspectRatio="none" width="100%" height="100%" overflow="visible" style="display: block;" viewBox="0 0 48.0002 52.5554" fill="none" xmlns="http://www.w3.org/2000/svg">
<g id="Group">
<path id="Vector" d="M43.9995 9.89036H22.6001L26.9002 4.94523C27.3003 4.4851 27.3003 3.7951 26.9002 3.33536C26.5001 2.87523 25.9001 2.87523 25.5003 3.33536L20.8005 8.74023L13.5003 0.345099C13.1002 -0.115033 12.5002 -0.115033 12.1005 0.345099C11.7003 0.80523 11.7003 1.49523 12.1005 1.95497L19.0001 9.89036H4.00011C1.8 9.89036 0 11.9604 0 14.4905V43.7002C0 46.2303 1.8 48.3003 4.00011 48.3003H5.4V51.4053C5.4 52.0953 5.80011 52.5554 6.40011 52.5554H12.2002C12.8002 52.5554 13.2003 52.0953 13.2003 51.4053V48.3003H34.9006V51.4053C34.9006 52.0953 35.3007 52.5554 35.9007 52.5554H41.7009C42.3009 52.5554 42.701 52.0953 42.701 51.4053V48.3003H44.0001C46.2002 48.3003 48.0002 46.2303 48.0002 43.7002V14.4905C48.0002 11.9604 46.2002 9.89036 44.0001 9.89036H43.9995ZM11.0998 50.141H7.39971V48.3009H11.1996L11.1999 50.141H11.0998ZM40.6001 50.141H36.8002V48.3009H40.6001V50.141ZM46.0001 43.586C46.0001 44.8509 45.1001 45.8859 44.0002 45.8859H3.99994C2.90006 45.8859 2.00006 44.8509 2.00006 43.586L1.99972 14.4907C1.99972 13.2258 2.89972 12.1908 3.99961 12.1908H43.9999C45.0998 12.1908 45.9998 13.2258 45.9998 14.4907L46.0001 43.586Z" fill="var(--fill-0, #5D5FEF)"/>
<path id="Vector_2" d="M31.0001 14.4907H7.99954C5.79943 14.4907 3.99943 16.5607 3.99943 19.0908V39.1008C3.99943 41.6309 5.79943 43.7009 7.99954 43.7009H30.9992C33.1994 43.7009 34.9994 41.6309 34.9994 39.1008V19.0908C34.9994 16.5607 33.1994 14.4907 30.9996 14.4907H31.0001ZM33 38.9857C33 40.2506 32.1 41.2856 31.0001 41.2856H7.99954C6.89965 41.2856 5.99965 40.2506 5.99965 38.9857V19.091C5.99965 17.8261 6.89965 16.7911 7.99954 16.7911H30.9992C32.0991 16.7911 32.9991 17.8261 32.9991 19.091L33 38.9857Z" fill="var(--fill-0, #5D5FEF)"/>
<path id="Vector_3" d="M42.8998 39.2154H38.4999C37.8999 39.2154 37.4998 39.6755 37.4998 40.3655C37.4998 41.0555 37.8999 41.5156 38.4999 41.5156H42.8998C43.4998 41.5156 43.8999 41.0555 43.8999 40.3655C43.8999 39.6755 43.4998 39.2154 42.8998 39.2154Z" fill="var(--fill-0, #5D5FEF)"/>
<path id="Vector_4" d="M42.8998 33.1207H38.4999C37.8999 33.1207 37.4998 33.5808 37.4998 34.2708C37.4998 34.9608 37.8999 35.421 38.4999 35.421H42.8998C43.4998 35.421 43.8999 34.9608 43.8999 34.2708C43.8999 33.5808 43.4998 33.1207 42.8998 33.1207Z" fill="var(--fill-0, #5D5FEF)"/>
<path id="Vector_5" d="M40.7998 16.2157C38.5997 16.2157 36.6999 18.2857 36.6999 20.9306C36.6999 23.5754 38.4999 25.6454 40.7998 25.6454C42.9999 25.6454 44.8997 23.5754 44.8997 20.9306C44.8997 18.2857 42.9999 16.2157 40.7998 16.2157ZM40.7998 23.3456C39.6999 23.3456 38.6998 22.3106 38.6998 20.9306C38.6998 19.5506 39.5998 18.5156 40.7998 18.5156C41.8997 18.5156 42.8998 19.5506 42.8998 20.9306C42.8998 22.3106 41.8997 23.3456 40.7998 23.3456Z" fill="var(--fill-0, #5D5FEF)"/>
</g>
</svg>
