<svg preserveAspectRatio="none" width="100%" height="100%" overflow="visible" style="display: block;" viewBox="0 0 39.5202 31.2831" fill="none" xmlns="http://www.w3.org/2000/svg">
<g id="Group">
<path id="Vector" d="M38.6464 7.8208C33.613 2.78735 26.9152 0 19.76 0C12.6048 0 5.9072 2.7872 0.8736 7.8208C-0.2912 8.9856 -0.2912 10.816 0.8736 11.9808C1.45599 12.5632 2.20495 12.8545 2.9536 12.8545C3.70225 12.8545 4.4512 12.5632 5.0336 11.9808C8.94378 8.02858 14.1856 5.8653 19.76 5.8653C25.3344 5.8653 30.576 8.02858 34.4864 11.9805C35.6512 13.1453 37.4816 13.1453 38.6464 11.9805C39.8115 10.8157 39.8115 8.94378 38.6464 7.8205V7.8208Z" fill="var(--fill-0, #5D5FEF)"/>
<path id="Vector_2" d="M8.6944 15.6832C7.5296 16.848 7.5296 18.6784 8.6944 19.8432C9.27678 20.4256 10.0257 20.7169 10.7744 20.7169C11.523 20.7169 12.272 20.4256 12.8544 19.8432C16.6816 16.016 22.88 16.016 26.6656 19.8017C27.7889 20.9665 29.6608 20.9665 30.8256 19.8017C31.9904 18.6369 31.9904 16.8065 30.8256 15.6417C24.7104 9.56796 14.8096 9.56796 8.6944 15.6832V15.6832Z" fill="var(--fill-0, #5D5FEF)"/>
<path id="Vector_3" d="M24.3776 26.7072C24.3776 29.2344 22.329 31.2831 19.8015 31.2831C17.2743 31.2831 15.2256 29.2344 15.2256 26.7072C15.2256 24.1798 17.2743 22.1311 19.8015 22.1311C22.3289 22.1311 24.3776 24.1797 24.3776 26.7072Z" fill="var(--fill-0, #5D5FEF)"/>
</g>
</svg>
